<svg version="1.1" viewBox="0.0 0.0 264.50656167979 259.03412073490813" fill="none" stroke="none" stroke-linecap="square" stroke-miterlimit="10" xmlns:xlink="http://www.w3.org/1999/xlink" xmlns="http://www.w3.org/2000/svg"><clipPath id="p.0"><path d="m0 0l264.50656 0l0 259.03412l-264.50656 0l0 -259.03412z" clip-rule="nonzero"/></clipPath><g clip-path="url(#p.0)"><path fill="#000000" fill-opacity="0.0" d="m0 0l264.50656 0l0 259.03412l-264.50656 0z" fill-rule="evenodd"/><path fill="#000000" fill-opacity="0.0" d="m17.072178 129.5175l0 0c0 -63.61277 51.56834 -115.18111 115.18111 -115.18111l0 0c30.547928 0 59.844696 12.135117 81.44534 33.735764c21.600647 21.600647 33.735764 50.897415 33.735764 81.44534l0 0c0 63.612762 -51.568344 115.18109 -115.18111 115.18109l0 0c-63.612762 0 -115.18111 -51.56833 -115.18111 -115.18109z" fill-rule="evenodd"/><path stroke="#a4c2f4" stroke-width="8.0" stroke-linejoin="round" stroke-linecap="butt" d="m17.072178 129.5175l0 0c0 -63.61277 51.56834 -115.18111 115.18111 -115.18111l0 0c30.547928 0 59.844696 12.135117 81.44534 33.735764c21.600647 21.600647 33.735764 50.897415 33.735764 81.44534l0 0c0 63.612762 -51.568344 115.18109 -115.18111 115.18109l0 0c-63.612762 0 -115.18111 -51.56833 -115.18111 -115.18109z" fill-rule="evenodd"/><path fill="#000000" fill-opacity="0.0" d="m23.329397 56.35433l230.36221 0l0 142.20473l-230.36221 0z" fill-rule="evenodd"/><path fill="#c9daf8" d="m102.241325 162.63432l-8.609375 0l-18.84375 -27.65625l-10.046875 0l0 27.65625l-6.781254 0l0 -64.56249l21.281254 0q10.640625 0 16.46875 4.625q5.84375 4.625 5.84375 13.828125q0 4.046875 -1.4375 7.296875q-1.4375 3.234375 -3.90625 5.5156174q-2.46875 2.28125 -5.921875 3.671875q-3.4375 1.375 -7.484375 1.671875l19.4375 27.953125zm-7.71875 -46.109367q0 -6.578125 -4.078125 -9.625q-4.078125 -3.046875 -11.203125 -3.046875l-14.5 0l0 25.328117l14.5 0q7.125 0 11.203125 -2.9843674q4.078125 -3.0 4.078125 -9.671875zm62.346107 0q0 9.34375 -5.84375 13.906242q-5.828125 4.546875 -16.375 4.546875l-14.593742 0l0 27.65625l-6.78125 0l0 -64.56249l21.281242 0q10.640625 0 16.46875 4.625q5.84375 4.625 5.84375 13.828125zm-6.78125 0q0 -6.6875 -4.203125 -9.671875q-4.203125 -3.0 -11.234375 -3.0l-14.593742 0l0 25.328117l14.593742 0q7.03125 0 11.234375 -2.9843674q4.203125 -3.0 4.203125 -9.671875zm60.564865 29.281242q0 4.0625 -1.6875 7.359375q-1.6875 3.28125 -4.515625 5.65625q-2.8125 2.375 -6.46875 3.671875q-3.65625 1.28125 -7.625 1.28125q-5.4375 0 -10.0 -2.03125q-4.546875 -2.03125 -7.21875 -5.984375l0 6.875l-5.734375 0l0 -19.640625l5.734375 0q0 3.3125 1.53125 6.0625q1.546875 2.75 3.921875 4.734375q2.375 1.96875 5.46875 3.078125q3.09375 1.109375 6.296875 1.109375q2.875 0 5.296875 -0.8125q2.421875 -0.8125 4.25 -2.3125q1.84375 -1.515625 2.90625 -3.6875q1.0625 -2.1875 1.0625 -4.953125q0 -3.125 -1.359375 -5.34375q-1.359375 -2.234375 -3.671875 -3.8125q-2.296875 -1.578125 -5.171875 -2.6875q-2.859375 -1.125 -5.828125 -2.21875q-3.515625 -1.234375 -7.03125 -2.59375q-3.515625 -1.359375 -6.28125 -3.4374924q-2.765625 -2.078125 -4.5 -5.0625q-1.734375 -3.0 -1.734375 -7.453125q0 -3.953125 1.671875 -7.046875q1.6875 -3.09375 4.40625 -5.21875q2.734375 -2.125 6.34375 -3.234375q3.609375 -1.125 7.421875 -1.125q4.703125 0 8.6875 1.9375q3.984375 1.921875 6.203125 5.875l0 -6.71875l5.984375 0l0 18.453125l-5.984375 0q0 -2.921875 -1.21875 -5.46875q-1.203125 -2.546875 -3.28125 -4.34375q-2.078125 -1.8125 -4.75 -2.875q-2.671875 -1.0625 -5.640625 -1.0625q-2.625 0 -5.0 0.59375q-2.375 0.59375 -4.15625 1.90625q-1.78125 1.296875 -2.84375 3.375q-1.0625 2.078125 -1.0625 4.953125q0 2.515625 1.25 4.296875q1.265625 1.78125 3.390625 3.15625q2.140625 1.359375 4.9375 2.46875q2.796875 1.109375 5.703125 2.25q3.671875 1.28125 7.28125 2.8749924q3.609375 1.578125 6.46875 3.8125q2.875 2.21875 4.703125 5.46875q1.84375 3.234375 1.84375 7.875z" fill-rule="nonzero"/></g></svg>